<svg height="511pt" viewBox="0 0 511 511.99939" width="511pt" xmlns="http://www.w3.org/2000/svg"><path d="m498.347656 304.140625c30.675782-82.351563 10.371094-175.691406-51.753906-237.816406-82.660156-82.703125-212.796875-88.796875-302.679688-14.136719-13.839843 11.5-20.007812 29.003906-16.113281 45.644531l1.804688 8.570313c2.898437 14.515625 6.195312 30.96875 20.007812 44.78125.546875.542968 1.144531.832031 1.699219 1.34375-42.199219 8.4375-56.109375 24.503906-64.128906 64.644531-5.863282 29.253906-13.308594 36.839844-43.261719 42.847656-11.734375 2.34375-25.019531 5.007813-37.0625 13.503907-6.765625 4.773437-8.394531 14.136718-3.617187 20.902343 4.785156 6.773438 14.128906 8.386719 20.902343 3.617188 6.871094-4.847657 15.570313-6.589844 25.664063-8.609375 41.3125-8.257813 58.402344-24.402344 66.789062-66.371094 5.863282-29.253906 11.308594-35.261719 41.265625-41.265625 10.550781-2.113281 22.238281-4.730469 33.222657-11.316406 12.296874 2.511719 24.621093 4.355469 32.78125 12.515625 6.898437 6.898437 9.125 16.316406 11.320312 27.144531-5.785156 2.5625-12.152344 4.390625-19.566406 5.875-40.730469 8.136719-58.300782 23.824219-66.800782 66.382813-5.867187 29.253906-11.3125 35.261718-41.265624 41.265624-41.144532 8.21875-56.386719 22.652344-64.804688 64.789063-4.445312 22.199219-8.199219 33.328125-30.894531 39.039063-8.042969 2.007812-12.921875 10.167968-10.898438 18.195312 1.992188 7.984375 10.105469 12.917969 18.191407 10.894531 34.5625-8.640625 46.351562-28.894531 53.015624-62.238281 5.917969-29.519531 11.523438-35.308594 41.277344-41.265625 40.972656-8.1875 58.335938-24.078125 66.789063-66.382813 5.863281-29.257812 11.308593-35.261718 41.261719-41.265624 7.085937-1.414063 14.6875-3.082032 22.246093-5.921876 2.8125 6.125 6.378907 12.160157 11.945313 17.726563 11.976562 11.976563 25.871094 15.96875 38.824218 18.730469-4.675781 1.523437-9.769531 2.597656-15.257812 3.695312-41.472656 8.289063-56.425781 22.972656-64.789062 64.777344-5.925782 29.589844-13.628907 36.917969-43.261719 42.859375-41.617188 8.304687-56.476563 23.125-64.804688 64.804687-2.625 13.09375-4.871093 25.089844-15.601562 32.636719-6.765625 4.789063-8.378907 14.148438-3.601563 20.917969 4.792969 6.757812 14.113282 8.367188 20.917969 3.601562 18.644531-13.183593 23.640625-30.964843 27.699219-51.269531 5.929687-29.566406 11.585937-35.332031 41.277344-41.277343 40.484374-8.097657 58.257812-23.65625 66.789062-66.382813 5.976562-29.824219 11.871094-35.359375 41.261719-41.25 14.507812-2.902344 30.941406-6.203125 44.777343-20.015625.003907.003906.003907.003906.003907.003906 7.398437 7.398438 9.449219 17.625 11.808593 29.460938 1.519532 7.566406 3.230469 15.648437 6.390626 23.621094-1.757813.371093-3.429688.785156-5.25 1.148437-41.136719 8.226563-56.355469 22.667969-64.773438 64.804687-5.863281 29.253907-13.308594 36.839844-43.261719 42.84375-25.316406 5.058594-46.804687 12.867188-58.167969 40.34375-3.152343 7.660157.496094 16.417969 8.15625 19.582032 7.652344 3.132812 16.417969-.484375 19.585938-8.15625 6.660156-16.125 19.503906-18.988282 36.3125-22.355469 40.976562-8.1875 58.335938-24.078125 66.789062-66.382813 5.886719-29.375 11.414063-35.285156 41.25-41.265624 6.085938-1.210938 12.316407-2.773438 18.566407-4.792969 33.125 25.890625 86.625 16.289062 111.757812-24.429688 7.648438-12.363281 14.121094-25.605469 19.25-39.347656zm-60.175781-81.179687c-.585937.070312-1.183594.101562-1.757813.101562-7.511718 0-13.988281-5.625-14.882812-13.257812-3.527344-30.144532-17.226562-58.503907-38.566406-79.847657-22.03125-22.03125-49.953125-35.433593-80.742188-38.761719-8.234375-.894531-14.195312-8.289062-13.300781-16.523437.878906-8.246094 8.421875-14.265625 16.523437-13.300781 37.675782 4.074218 71.804688 20.449218 98.726563 47.375 26.105469 26.105468 42.847656 60.746094 47.15625 97.574218.964844 8.230469-4.921875 15.671876-13.15625 16.640626zm0 0"/></svg>