<svg height="512pt" viewBox="0 0 512.00076 512" width="512pt" xmlns="http://www.w3.org/2000/svg"><path d="m446.082031 65.902344c-39.90625-39.910156-92.914062-63.238282-149.261719-65.6875-55.984374-2.4375-110.464843 15.871094-153.390624 51.539062-13.839844 11.5-20.023438 28.996094-16.132813 45.65625.644531 2.753906 1.207031 5.570313 1.804687 8.558594 2.902344 14.511719 6.195313 30.964844 20.011719 44.785156.476563.472656.953125.933594 1.433594 1.386719-14.285156 2.859375-30.335937 6.300781-43.859375 19.824219-13.65625 13.65625-17.519531 30.511718-20.921875 45.378906-2.867187 12.507812-5.339844 23.308594-12.894531 30.863281-7.398438 7.394531-17.621094 9.441407-29.457032 11.808594-11.722656 2.34375-25.007812 5-37.054687 13.496094-6.769531 4.777343-8.386719 14.132812-3.613281 20.902343 4.792968 6.792969 14.15625 8.375 20.902344 3.613282 6.863281-4.839844 15.570312-6.582032 25.648437-8.597656 14.515625-2.902344 30.96875-6.191407 44.785156-20.011719 13.65625-13.65625 17.519531-30.507813 20.921875-45.375 2.867188-12.507813 5.339844-23.3125 12.894532-30.867188 7.394531-7.394531 17.621093-9.4375 29.457031-11.804687 10.640625-2.128906 22.46875-4.515625 33.53125-11.214844 12.496093 2.539062 24.34375 4.289062 32.46875 12.414062 7.027343 7.03125 9.222656 16.621094 11.457031 27.722657-5.730469 2.5-12.375 3.832031-19.703125 5.296875-14.515625 2.902344-30.96875 6.195312-44.785156 20.011718-13.660157 13.65625-17.519531 30.511719-20.925781 45.378907-2.863282 12.507812-5.339844 23.308593-12.894532 30.863281-7.394531 7.394531-17.617187 9.441406-29.457031 11.808594-14.515625 2.902344-30.96875 6.195312-44.785156 20.011718-13.816407 13.816407-17.109375 30.269532-20.011719 44.785157-2.367188 11.839843-4.410156 22.0625-11.804688 29.457031-4.53125 4.527344-10.0625 7.300781-19.09375 9.566406-8.035156 2.015625-12.914062 10.164063-10.898437 18.199219 2.027344 8.0625 10.195313 12.90625 18.199219 10.894531 9.667968-2.425781 22.15625-6.601562 33.003906-17.449218 13.816406-13.816407 17.105469-30.269532 20.011719-44.785157 2.367187-11.839843 4.410156-22.0625 11.804687-29.457031 7.394532-7.394531 17.621094-9.4375 29.457032-11.808594 14.515624-2.902344 30.96875-6.191406 44.789062-20.011718 13.65625-13.65625 17.515625-30.507813 20.921875-45.375 2.863281-12.507813 5.339844-23.3125 12.894531-30.867188 7.394532-7.394531 17.617188-9.4375 29.457032-11.808594 7.015624-1.402344 14.546874-2.914062 22.027343-5.695312 2.804688 6.058594 6.640625 11.992187 12.152344 17.503906 11.945313 11.945312 25.859375 16.023438 38.789063 18.785156-4.652344 1.507813-9.761719 2.539063-15.214844 3.628906-14.519532 2.902344-30.96875 6.195313-44.789063 20.011719-13.65625 13.65625-17.515625 30.507813-20.921875 45.378907-2.867187 12.503906-5.339844 23.308593-12.894531 30.863281-7.394531 7.394531-17.621094 9.4375-29.457031 11.808593-14.515625 2.902344-30.96875 6.191407-44.785156 20.007813-13.820313 13.820313-17.109376 30.269531-20.011719 44.789063-2.609375 13.039062-4.886719 25.074218-15.59375 32.648437-6.761719 4.78125-8.367188 14.140625-3.585938 20.90625 4.785157 6.765625 14.144531 8.367187 20.90625 3.585937 18.648438-13.183593 23.628907-30.957031 27.691407-51.257812 2.367187-11.839844 4.410156-22.0625 11.804687-29.457031 7.398437-7.394531 17.621094-9.441407 29.457031-11.808594 14.519532-2.902344 30.96875-6.195313 44.789063-20.011719 13.65625-13.65625 17.515625-30.507812 20.921875-45.378906 2.867187-12.507812 5.339844-23.308594 12.894531-30.863281 7.394531-7.394531 17.617187-9.4375 29.457031-11.808594 14.515625-2.902344 30.96875-6.191406 44.785156-20.011719 7.398438 7.398438 9.441407 17.621094 11.808594 29.457032 1.519532 7.597656 3.148438 15.722656 6.328125 23.71875-1.695312.359374-3.417969.707031-5.167969 1.058593-14.515624 2.902344-30.96875 6.195313-44.785156 20.011719-13.65625 13.65625-17.519531 30.507812-20.925781 45.378906-2.863281 12.507813-5.339844 23.308594-12.894531 30.863282-7.394532 7.394531-17.617188 9.441406-29.453125 11.808593-14.519531 2.902344-30.96875 6.195313-44.789063 20.011719-5.722656 5.722656-10.097656 12.375-13.375 20.335938-3.148437 7.660156.503906 16.425781 8.164063 19.578124 7.691406 3.164063 16.441406-.53125 19.578125-8.164062 6.605468-16.050781 19.503906-18.988281 36.304687-22.347656 14.515625-2.902344 30.964844-6.191406 44.785157-20.007813 13.65625-13.660156 17.515624-30.511719 20.921874-45.378906 2.867188-12.507813 5.339844-23.3125 12.898438-30.867187 7.394531-7.394532 17.617188-9.4375 29.453125-11.804688 6.089844-1.21875 12.3125-2.46875 18.5625-4.488281 3.945313 3.058593 8.285156 5.636719 13.140625 7.773437 35.550781 15.652344 78.117188.675782 98.601562-32.507812 7.667969-12.421875 14.144532-25.664063 19.25-39.351563 14.855469-39.867187 18.113282-83.011719 9.421876-124.765625-8.921876-42.863281-30.070313-81.953125-61.160157-113.039062zm23.628907 227.328125c-4.417969 11.851562-10.023438 23.3125-16.664063 34.066406-12.972656 21.015625-39.765625 30.15625-60.988281 20.8125-3.855469-1.695313-6.90625-3.746094-9.609375-6.449219-7.394531-7.394531-9.441407-17.617187-11.808594-29.457031-2.902344-14.515625-6.195313-30.96875-20.011719-44.785156-13.816406-13.816407-30.269531-17.109375-44.785156-20.011719-11.839844-2.367188-22.0625-4.414062-29.457031-11.808594-7.394531-7.394531-9.441407-17.617187-11.808594-29.457031-2.902344-14.515625-6.191406-30.964844-20.011719-44.785156-13.816406-13.816407-30.269531-17.105469-44.785156-20.011719-11.835938-2.367188-22.0625-4.410156-29.457031-11.804688-7.394531-7.394531-9.4375-17.621093-11.804688-29.457031-.617187-3.085937-1.253906-6.277343-2.007812-9.5-1.292969-5.523437 1.042969-11.5625 6.089843-15.757812 36.414063-30.257813 80.464844-45.203125 124.382813-45.203125 49.957031 0 99.742187 19.34375 137.886719 57.492187 53.839844 53.839844 71.4375 134.742188 44.839844 206.117188zm0 0"/><path d="m304.941406 60.953125c-8.234375-.890625-15.632812 5.0625-16.523437 13.300781-.890625 8.234375 5.0625 15.632813 13.300781 16.523438 30.789062 3.328125 58.707031 16.730468 80.730469 38.753906 21.339843 21.347656 35.039062 49.707031 38.574219 79.855469.960937 8.171875 8.363281 14.117187 16.648437 13.148437 8.226563-.964844 14.113281-8.417968 13.148437-16.644531-4.320312-36.820313-21.066406-71.472656-47.15625-97.570313-26.917968-26.914062-61.054687-43.296874-98.722656-47.367187zm0 0"/></svg>